<svg width="128" height="128" viewBox="0 0 128 128" fill="none" xmlns="http://www.w3.org/2000/svg">
<path d="M50.7916 92.72C48.8716 92.72 47.2716 91.92 45.9916 90.32C44.7116 88.72 43.9382 86.5067 43.6716 83.68C43.4049 80.8 43.7249 77.6 44.6316 74.08C45.8582 69.4933 47.8049 65.44 50.4716 61.92C53.1916 58.3467 56.1516 55.6 59.3516 53.68C62.6049 51.76 65.5916 50.8 68.3116 50.8C70.8182 50.8 72.8449 51.7067 74.3916 53.52C75.9382 55.28 76.4449 58.2133 75.9116 62.32L75.6716 62.08L82.3916 37.2L85.0316 38.8L73.7516 39.04L73.9116 38.16C77.0582 37.9467 80.3382 37.0667 83.7516 35.52C84.0182 35.4133 84.2582 35.36 84.4716 35.36C84.8982 35.36 85.2182 35.52 85.4316 35.84C85.6982 36.16 85.7516 36.5867 85.5916 37.12L71.6716 89.04C71.6182 89.2533 71.5649 89.4133 71.5116 89.52C71.5116 89.5733 71.4849 89.68 71.4316 89.84L68.6316 89.76C73.5916 87.8933 78.1249 85.6533 82.2316 83.04L82.7116 83.76L69.9116 92.48C69.6449 92.64 69.3782 92.72 69.1116 92.72C68.6849 92.72 68.3382 92.56 68.0716 92.24C67.8582 91.92 67.8316 91.4933 67.9916 90.96L73.4316 70.64C73.6449 69.7867 73.8049 69.1733 73.9116 68.8C74.0182 68.3733 74.1782 67.76 74.3916 66.96V67.76C73.2182 70.4267 71.2716 73.76 68.5516 77.76C65.8316 81.7067 62.8449 85.2 59.5916 88.24C56.3916 91.2267 53.4582 92.72 50.7916 92.72ZM52.7916 90.72C54.8182 90.72 57.2716 89.28 60.1516 86.4C63.0849 83.4667 65.9116 79.9467 68.6316 75.84C71.4049 71.68 73.5382 67.8667 75.0316 64.4C75.3516 62.3733 75.2982 60.48 74.8716 58.72C74.4449 56.9067 73.5382 55.4667 72.1516 54.4C70.8182 53.28 69.0049 52.72 66.7116 52.72C62.6582 52.72 58.9782 54.3733 55.6716 57.68C52.3649 60.9333 50.0182 65.1733 48.6316 70.4C47.7782 73.6 47.3782 76.7733 47.4316 79.92C47.4849 83.0667 47.9649 85.6533 48.8716 87.68C49.8316 89.7067 51.1382 90.72 52.7916 90.72Z" fill="black" style="fill:black;fill-opacity:1;"/>
</svg>
