<svg width="202" height="128" viewBox="0 0 202 128" fill="none" xmlns="http://www.w3.org/2000/svg">
<path d="M18.535 92.96C15.5483 92.96 12.855 92.16 10.455 90.56C8.055 88.9067 6.16167 86.64 4.775 83.76C3.38833 80.88 2.695 77.6533 2.695 74.08C2.535 69.92 3.255 66.0267 4.855 62.4C6.50833 58.72 8.775 55.7867 11.655 53.6C14.5883 51.4133 17.7883 50.32 21.255 50.32C22.8017 50.32 24.2417 50.5333 25.575 50.96C26.9083 51.3333 28.1617 51.92 29.335 52.72C30.5083 53.4667 31.655 54.4533 32.775 55.68L30.935 57.44V36.8L41.175 35.2V79.84L43.095 92H32.775L30.935 82.72L30.855 73.68C30.855 69.5733 30.215 65.9733 28.935 62.88C27.7083 59.7333 26.1617 57.3333 24.295 55.68C22.4283 53.9733 20.5883 53.12 18.775 53.12C16.6417 53.12 15.0417 54.32 13.975 56.72C12.9083 59.12 12.375 62 12.375 65.36C12.4283 68.4533 12.8817 71.6533 13.735 74.96C14.5883 78.2133 15.8683 80.9867 17.575 83.28C19.335 85.52 21.4417 86.64 23.895 86.64C25.175 86.64 26.4283 86.2933 27.655 85.6C28.935 84.8533 30.1883 83.68 31.415 82.08L31.895 84.16C29.7617 87.6267 27.5217 89.9733 25.175 91.2C22.8817 92.3733 20.6683 92.96 18.535 92.96ZM63.9888 82.64V59.2C63.9888 56.6933 63.8021 55.0133 63.4288 54.16C63.0554 53.2533 62.4688 52.8 61.6688 52.8C60.4421 52.8 58.8688 53.6267 56.9488 55.28C55.0288 56.88 52.2288 59.7867 48.5488 64C47.8554 64.8 47.0821 65.2267 46.2288 65.28C45.4288 65.3333 44.7621 65.04 44.2288 64.4C43.7488 63.7067 43.5888 62.8267 43.7487 61.76L45.0288 53.68C46.7888 52.8267 49.1354 52.0533 52.0688 51.36C55.0021 50.6667 57.6954 50.32 60.1488 50.32C64.5754 50.32 68.0954 51.6533 70.7088 54.32C73.3221 56.9867 74.6021 61.3867 74.5488 67.52L74.3888 81.2L76.3888 92H65.8288L63.9888 82.64ZM49.9888 92.96C46.6821 92.96 44.1754 92.08 42.4688 90.32C40.7621 88.56 39.9088 86.32 39.9088 83.6C39.9088 81.8933 40.3088 80.32 41.1087 78.88C41.9088 77.44 43.2154 76.0267 45.0288 74.64C46.8954 73.2 49.4021 71.7067 52.5488 70.16L55.5888 68.64L66.3088 63.6V66.4L59.5887 69.52C56.2288 71.12 53.7754 72.72 52.2288 74.32C50.6821 75.8667 49.9088 77.52 49.9088 79.28C49.9088 80.9867 50.4954 82.4 51.6688 83.52C52.8421 84.64 54.3888 85.2 56.3088 85.2C57.6421 85.2 59.0554 84.9067 60.5488 84.32C62.0421 83.68 63.2421 82.8267 64.1488 81.76L64.8688 83.04C63.3754 85.9733 61.3754 88.3733 58.8688 90.24C56.3621 92.0533 53.4021 92.96 49.9888 92.96ZM96.9338 93.2C95.0671 93.2 93.2271 92.8267 91.4138 92.08C89.6538 91.3333 88.1071 90.24 86.7738 88.8C85.4404 87.36 84.5338 85.6267 84.0538 83.6H85.1738L84.2938 92H75.2538L76.6938 78.24V36.8L86.9338 35.2V69.76C86.9338 73.8133 87.5738 77.4133 88.8538 80.56C90.1338 83.7067 91.7071 86.1333 93.5738 87.84C95.4938 89.5467 97.3604 90.4 99.1738 90.4C101.307 90.4 102.907 89.2 103.974 86.8C105.04 84.4 105.574 81.4933 105.574 78.08C105.574 74.9867 105.12 71.7867 104.214 68.48C103.36 65.1733 102.054 62.4 100.294 60.16C98.5871 57.8667 96.5071 56.6933 94.0538 56.64C92.6671 56.64 91.3071 57.04 89.9738 57.84C88.6938 58.64 87.4404 59.8933 86.2138 61.6V58.96C87.8671 56.4 89.8404 54.32 92.1338 52.72C94.4271 51.12 96.9604 50.32 99.7338 50.32C102.294 50.32 104.774 51.04 107.174 52.48C109.574 53.92 111.547 56.1067 113.094 59.04C114.64 61.9733 115.414 65.52 115.414 69.68C115.414 74.2133 114.507 78.2667 112.694 81.84C110.934 85.4133 108.64 88.2133 105.814 90.24C102.987 92.2133 100.027 93.2 96.9338 93.2ZM135.574 93.2C133.708 93.2 131.868 92.8267 130.054 92.08C128.294 91.3333 126.748 90.24 125.414 88.8C124.081 87.36 123.174 85.6267 122.694 83.6H123.814L122.934 92H113.894L115.334 78.24V36.8L125.574 35.2V69.76C125.574 73.8133 126.214 77.4133 127.494 80.56C128.774 83.7067 130.348 86.1333 132.214 87.84C134.134 89.5467 136.001 90.4 137.814 90.4C139.948 90.4 141.548 89.2 142.614 86.8C143.681 84.4 144.214 81.4933 144.214 78.08C144.214 74.9867 143.761 71.7867 142.854 68.48C142.001 65.1733 140.694 62.4 138.934 60.16C137.228 57.8667 135.148 56.6933 132.694 56.64C131.308 56.64 129.948 57.04 128.614 57.84C127.334 58.64 126.081 59.8933 124.854 61.6V58.96C126.508 56.4 128.481 54.32 130.774 52.72C133.068 51.12 135.601 50.32 138.374 50.32C140.934 50.32 143.414 51.04 145.814 52.48C148.214 53.92 150.188 56.1067 151.734 59.04C153.281 61.9733 154.054 65.52 154.054 69.68C154.054 74.2133 153.148 78.2667 151.334 81.84C149.574 85.4133 147.281 88.2133 144.454 90.24C141.628 92.2133 138.668 93.2 135.574 93.2ZM153.655 36.88L164.055 35.2V92H153.655V36.88ZM182.753 93.2C179.073 93.2 175.739 92.3467 172.753 90.64C169.819 88.88 167.526 86.48 165.873 83.44C164.219 80.4 163.393 76.9333 163.393 73.04C163.393 68.9867 164.299 65.2267 166.113 61.76C167.979 58.2933 170.486 55.5467 173.633 53.52C176.833 51.44 180.379 50.4 184.273 50.4C187.366 50.4 190.059 51.0667 192.353 52.4C194.699 53.68 196.486 55.4133 197.713 57.6C198.993 59.7867 199.633 62.16 199.633 64.72C199.633 66.5867 199.313 67.9733 198.673 68.88C198.033 69.7333 197.233 70.2667 196.273 70.48C195.366 70.6933 194.166 70.8 192.673 70.8H171.713V68.08H192.433L188.753 70.24L188.833 68.16C188.833 65.8667 188.539 63.6 187.953 61.36C187.366 59.12 186.433 57.2533 185.153 55.76C183.873 54.2667 182.273 53.52 180.353 53.52C178.753 53.52 177.393 54.0267 176.273 55.04C175.153 56 174.273 57.3867 173.633 59.2C173.046 60.96 172.753 63.04 172.753 65.44C172.753 68.48 173.313 71.6 174.433 74.8C175.606 78 177.419 80.72 179.873 82.96C182.379 85.1467 185.499 86.24 189.233 86.24C190.833 86.24 192.353 85.9733 193.793 85.44C195.233 84.8533 196.646 83.9733 198.033 82.8L199.153 84.08C197.126 86.9067 194.779 89.1467 192.113 90.8C189.499 92.4 186.379 93.2 182.753 93.2Z" fill="black" style="fill:black;fill-opacity:1;"/>
</svg>
