<svg width="128" height="128" viewBox="0 0 128 128" fill="none" xmlns="http://www.w3.org/2000/svg">
<rect width="128" height="128" fill="#0A0A0A" style="fill:#0A0A0A;fill:color(display-p3 0.0392 0.0392 0.0392);fill-opacity:1;"/>
<path d="M31.68 91.08V41.16H55.84C61.5467 41.16 66.3733 41.4533 70.32 42.04C74.2667 42.6267 77.6 43.4533 80.32 44.52C83.0933 45.5867 85.5733 46.8667 87.76 48.36C89.9467 49.8533 91.84 51.5067 93.44 53.32C95.0933 55.08 96.3467 57.0533 97.2 59.24C98.1067 61.3733 98.56 63.7467 98.56 66.36C98.4 70.2533 97.4133 73.7467 95.6 76.84C93.84 79.88 91.1733 82.4667 87.6 84.6C84.08 86.68 79.52 88.28 73.92 89.4C68.3733 90.52 61.7067 91.08 53.92 91.08H31.68ZM42 82.92H53.44C61.4933 82.92 68.08 82.3067 73.2 81.08C78.3733 79.8 82.1867 77.96 84.64 75.56C87.0933 73.1067 88.32 70.1467 88.32 66.68C88.32 63.0533 87.12 59.96 84.72 57.4C82.32 54.84 78.6667 52.8933 73.76 51.56C68.8533 50.1733 62.6667 49.48 55.2 49.48H42V82.92Z" fill="white" style="fill:white;fill-opacity:1;"/>
</svg>
